<?xml version="1.0" encoding="utf-8"?>
<!-- Generator: Adobe Illustrator 16.0.0, SVG Export Plug-In . SVG Version: 6.00 Build 0)  -->
<!DOCTYPE svg PUBLIC "-//W3C//DTD SVG 1.1//EN" "http://www.w3.org/Graphics/SVG/1.1/DTD/svg11.dtd">
<svg version="1.1" id="Calque_1" xmlns="http://www.w3.org/2000/svg" xmlns:xlink="http://www.w3.org/1999/xlink" x="0px" y="0px"
	 width="960px" height="560px" viewBox="0 0 960 560" enable-background="new 0 0 960 560" xml:space="preserve">
<circle id="bg" display="none" fill-rule="evenodd" clip-rule="evenodd" fill="#FFFFFF" cx="477" cy="309" r="220"/>
<ellipse fill-rule="evenodd" clip-rule="evenodd" fill="#F4912B" cx="475.015" cy="288.073" rx="224.985" ry="224.927"/>
<g id="tete">
	<path fill-rule="evenodd" clip-rule="evenodd" fill="#EAB8A2" d="M553.312,269.647c-2.534,7.062-4.425,14.337-7.556,21.206
		c-4.395,9.64-10.207,18.344-16.646,26.689c-1.469,1.904-2.535,2.07-4.135,0.098c-8.6-10.596-19.762-17.724-31.945-23.484
		c-3.883-1.836-7.847-2.467-11.952-1.323c-4.479,1.247-8.878,0.929-13.297-0.104c-3.505-0.818-6.911-0.485-10.144,1.019
		c-9.334,4.343-18.187,9.454-25.971,16.291c-2.627,2.309-4.899,4.896-6.888,7.734c-1.232,1.76-2.179,1.76-3.448,0.023
		c-11.409-15.6-20.271-32.354-23.51-51.658c-3.141-18.707-1.463-37.315,1.182-55.906c1.593-11.185,3.511-22.266,8.071-32.731
		c6.489-14.889,18.009-23.981,33.136-28.839c6.216-1.995,12.521-3.816,18.901-5.166c7.052-1.492,11.339-5.521,13.34-12.279
		c0.216-0.73,0.541-1.433,0.87-2.123c0.088-0.185,0.376-0.272,0.581-0.412c0.214,0.124,0.576,0.211,0.612,0.369
		c2.143,9.737,8.68,14.045,18.116,15.548c7.977,1.27,15.574,4.075,23.042,7.248c17.426,7.405,25.848,21.883,30.836,38.977
		c4.252,14.562,6.059,29.6,7.885,44.613c0.625,5.706,0.717,11.426,0.303,17.146C554.283,258.274,553.777,263.959,553.312,269.647z"
		/>
	<path fill-rule="evenodd" clip-rule="evenodd" fill="#EAB8A2" d="M469.494,436.389c-28.962-2.444-51.607-14.896-65.449-41.299
		c-0.67-1.276-1.058-2.353,0.073-3.826c6.655-8.68,9.147-18.778,9.613-29.498c0.163-3.715,0.164-7.438,0.29-11.155
		c0.045-1.339-0.197-2.782,1.027-4.275c4.718,6.709,9.703,12.855,14.781,18.929c6.078,7.268,13.086,13.367,21.61,17.633
		c0.528,0.264,0.911,0.815,1.363,1.23c0.405,0.268,0.81,0.537,1.214,0.807l-0.057-0.051c0.791,0.267,1.582,0.533,2.373,0.801
		l-0.067-0.028c1.062,1.121,2.415,1.517,3.908,1.56l-0.055-0.02c4.513,2.5,9.46,2.369,14.374,2.295
		c1.664-0.023,3.621,0.695,4.822-1.254c0.785-0.121,1.57-0.241,2.354-0.361l0.068,0.279c3.956,1.191,7.558,0.22,10.983-1.812
		c1.985-0.867,3.941-1.808,5.959-2.588c12.913-4.988,21.385-15.175,29.742-25.458c3.033-3.731,5.779-7.696,8.995-12.006
		c1.528,6.956,1.029,13.491,1.807,19.903c1.002,8.27,2.909,16.167,8.346,22.77c1.771,2.149,1.362,4.16,0.213,6.386
		c-11.38,22.019-29.37,35.08-53.653,39.553c-3.896,0.718-7.871,0.999-11.81,1.481C478.045,435.441,473.769,435.436,469.494,436.389z
		"/>
	<path fill-rule="evenodd" clip-rule="evenodd" fill="#EAB8A2" d="M480.273,310.697c5.1,1.246,10.389,1.674,15.354,3.484
		c1.679,0.613,3.328,1.352,4.902,2.196c2.678,1.433,5.205,3.245,5.066,6.645c-0.146,3.568-2.601,5.828-5.609,7.246
		c-5.042,2.374-10.457,3.377-16.002,3.706c-3.188-1.214-6.542-0.752-9.742-0.488c-4.414,0.365-8.725-1.635-13.111-0.285
		c-4.712-0.582-9.336-1.543-13.317-4.279c-4.247-2.92-4.597-5.978-1.216-9.869c2.604-2.998,6.158-4.488,9.863-5.533
		c3.795-1.07,7.654-1.904,11.486-2.841c1.269-0.165,2.536-0.329,3.803-0.494c0.554-0.021,1.107-0.04,1.662-0.06
		C475.699,310.314,477.986,310.506,480.273,310.697z"/>
	<path fill-rule="evenodd" clip-rule="evenodd" fill="#EAB8A2" d="M553.824,240.338c0.009-0.811,0.02-1.622,0.03-2.432
		c0.173-0.75,0.347-1.502,0.521-2.252c1.728-3.617,4.637-4.988,8.504-4.33c3.815,0.65,6.162,2.866,6.844,6.751
		c0.221,1.256,0.539,2.495,0.812,3.742c0.691,4.604,0.397,9.196-0.154,13.785c-1.168,7.594-2.233,15.193-4.905,22.479
		c-1.849,5.042-5.73,7.686-10.325,9.598c-2.082,0.866-1.986-0.83-1.964-2.103c0.048-2.813,1.019-5.562,0.61-8.412
		c0.053-0.213,0.06-0.429,0.019-0.645c0-0.559,0-1.118,0-1.677C553.818,263.341,553.82,251.84,553.824,240.338z"/>
	<path fill-rule="evenodd" clip-rule="evenodd" fill="#EAB8A2" d="M400.474,275.659c0.101,0.571,0.2,1.142,0.3,1.712
		c0.009,0.742,0.016,1.485,0.024,2.227l-0.285,0.053c-1.444,1.878,0.981,6.073-3.626,6.057c-3.515-1.989-4.849-5.585-6.014-9.011
		c-3.986-11.709-5.933-23.764-4.775-36.161c0.316-3.393,0.729-7,4.681-8.517c2.206,1.022,4.554,0.381,6.831,0.582l-0.021-0.007
		c0.27,0.275,0.54,0.55,0.809,0.827c0,0-0.022-0.084-0.021-0.083c0.763,3.382,0.814,6.811,0.8,10.263
		c-0.044,9.313-0.01,18.627,0.037,27.941C399.221,273.005,398.758,274.687,400.474,275.659z"/>
	<path fill-rule="evenodd" clip-rule="evenodd" fill="#562816" d="M351.041,234.723l0.014-0.069
		c-1.92,9.177-4.084,18.316-4.248,27.762c-0.004,0.225-0.047,0.442-0.127,0.652c-1.104,2.264-0.459,4.668-0.566,7.013
		c0,0,0.021-0.085,0.021-0.085c-1.146,1.543-0.669,3.322-0.729,5.023c0.013,0.221-0.027,0.432-0.117,0.634
		c-0.203,0.775-0.514,1.54-0.595,2.327c-1.154,11.292-2.524,22.572-3.29,33.892c-0.316,4.664-2.022,9.375-0.341,14.108
		c-1.085,13.038-2.869,25.99-4.722,38.937c-0.781,5.467-4.725,8.081-11.242,7.276c-2.302-1.553-4.595-3.114-5.069-6.169
		c1.888-3.717,0.201-7.887,1.481-11.697c0.288-0.861-0.045-1.812-0.775-2.499c0.093-0.442,0.186-0.886,0.278-1.327
		c1.182-0.508,1.2-1.564,1.305-2.627c0.651-6.699,1.329-13.395,1.999-20.091c-1.061-0.56-0.807-1.558-0.724-2.421
		c0.315-3.273,0.697-6.541,1.054-9.812c0.342,0.216,0.952,0.823,1.012,0.063c0.337-4.236,0.52-8.486,0.755-12.73
		c0.062-2.562,0.122-5.123,0.185-7.684c0.99-0.436,1.195-1.278,1.287-2.26c0.693-7.358,1.484-14.708,2.088-22.073
		c0.154-1.882,1.444-3.796,0.096-5.714c-0.037-0.921-0.111-1.847,0.395-2.688c0.279,0.303,0.723,1.9,0.853,0.084
		c0.221-3.111,0.04-6.25,0.028-9.377l-0.077,0.064c1.085-0.873,1.395-2.1,1.563-3.396c1.139-8.769,2.547-17.49,4.681-26.081
		c0.233-0.942,0.147-1.85-0.393-2.684c3.208-15.134,8.101-29.675,14.425-43.818c4.686-10.476,11.297-19.646,17.732-28.978
		c0.908-1.315,2.214-2.355,3.336-3.523c0.831-0.202,1.307-0.727,1.434-1.571c0.191-0.199,0.383-0.398,0.574-0.597
		c0.289-0.238,0.58-0.477,0.869-0.715c0,0-0.061,0.055-0.061,0.054c0.252-0.252,0.504-0.504,0.757-0.757l-0.058,0.055
		c0.252-0.252,0.504-0.505,0.758-0.757c0,0-0.15,0.001-0.149,0c0.865-0.13,1.381-0.607,1.485-1.493l0.012,0.157
		c0.238-0.287,0.476-0.574,0.714-0.861c0.924-1.347,2.071-2.468,3.427-3.377c0.398-0.071,0.889-0.034,0.795-0.68
		c7.408-7.278,15.604-13.456,24.893-18.183c2.248-1.143,4.209-2.846,6.305-4.288c4.771-3.285,10.411-4.326,15.764-6.105
		c6.496,0.339,12.756-0.815,18.857-2.978c0,0-0.105-0.014-0.106-0.014c3.235-0.801,6.646-0.148,9.851-1.191
		c4.527,1.35,9.083,2.616,13.564,4.105c1.188,0.395,1.846,0.18,2.786-0.473c4.144-2.878,8.642-4.976,13.704-5.657
		c1.235-0.166,2.518-0.68,3.672,0.289c0.459,0.866,1.265,0.906,2.099,0.878c0.226,0.003,0.446,0.042,0.661,0.116
		c1.082,0.83,2.341,0.588,3.561,0.583c0.212-0.016,0.42,0.009,0.623,0.075c0.487,0.205,0.973,0.411,1.46,0.616
		c0,0-0.104-0.039-0.103-0.04c0.499,0.246,0.996,0.493,1.494,0.74l-0.098-0.024c0.939,0.859,2.123,0.908,3.281,0.901
		c4.531-0.032,9.062-0.109,13.593-0.17c0,0-0.067-0.03-0.065-0.03c1.523,1.17,3.289,0.688,4.978,0.724c0,0-0.081-0.031-0.081-0.032
		c2.158,1.405,4.511,2.136,7.096,2.076c0,0-0.071-0.005-0.07-0.005c0.584,0.649,1.361,0.749,2.17,0.764l-0.066-0.042
		c0.22,0.058,0.439,0.117,0.658,0.175c0.961,0.293,1.92,0.586,2.881,0.879c0.278,0.687,0.754,1.047,1.523,0.918
		c0,0-0.152,0.094-0.151,0.094c1.786,1.727,3.997,2.186,6.378,2.149l-0.109-0.049c0.268,0.258,0.533,0.518,0.8,0.777l-0.069-0.08
		c1.153,1.276,2.445,2.273,4.301,2.143c0,0-0.109-0.069-0.109-0.068c0.406,0.99,1.189,1.416,2.213,1.481c0,0-0.121-0.06-0.119-0.06
		c1.526,1.612,2.88,3.552,5.579,2.947c17.376,11.257,31.851,25.457,43.334,42.695c0.087,0.216,0.173,0.431,0.26,0.647l-0.178-0.032
		c0.257,0.255,0.513,0.51,0.769,0.766l-0.041-0.088c0.255,0.499,0.51,0.998,0.766,1.497c-0.002,0-0.021-0.143-0.021-0.142
		c0.128,2.323,0.799,4.371,2.883,5.705l-0.1-0.076c-0.123,1.676,0.604,2.862,2.082,3.615l0.116,0.16l-0.154,0.124
		c0.25,0.486,0.499,0.973,0.748,1.46c3.9,4.867,5.466,10.828,7.663,16.482c6.209,15.977,9.418,32.713,12.158,49.535
		c1.096,6.723,2.315,13.489,1.843,20.379c0.02,1.211-0.233,2.473,0.655,3.524c0.035,0.214,0.053,0.43,0.053,0.647
		c0.109,2.117-0.479,4.298,0.573,6.33c0.082,0.214,0.124,0.436,0.126,0.665c0.293,5.277,0.643,10.553,0.852,15.834
		c0.1,2.529-0.029,5.061,1.292,7.36c0,0-0.066-0.083-0.065-0.083c0.185,0.238,0.367,0.477,0.553,0.714
		c-0.018,5.624,1.561,11.165,0.884,16.825c-0.612,6.49,0.569,12.895,0.994,19.334c0.023,0.34,0.61,0.642,0.934,0.961
		c0.224,2.121,0.446,4.24,0.669,6.361c-0.313,0.319-0.926,0.672-0.894,0.953c0.505,4.564,1.091,9.119,1.657,13.678
		c0.081,0.211,0.123,0.432,0.127,0.658c-1.221,8.707,3.195,17.4,0.06,26.111l0.074-0.057c-1.371,0.068-2.073,0.854-2.299,2.146
		c-4.362,1.994-7.062,1.418-10.444-2.227c-0.098-0.193-0.196-0.385-0.295-0.576c0,0,0.203-0.036,0.202-0.035
		c-0.637-2.882-0.398-6.027-2.546-8.455c-0.037-0.484-0.074-0.969-0.111-1.453c0.045-0.07,0.134-0.146,0.125-0.211
		c-0.018-0.152-0.08-0.299-0.125-0.448c-0.008-0.479-0.014-0.958-0.02-1.437c0.769-0.886,0.643-1.932,0.531-2.975
		c-0.678-6.318-1.094-12.682-2.158-18.934c-0.46-2.703,0.661-5.865-1.785-8.148c-0.609-8.664-1.91-17.289-1.503-26.013
		c0.48-0.981,0.345-1.974,0.267-3.04c-1.064-14.545-1.999-29.101-3.109-43.642c-0.292-3.84-0.564-7.757-2.469-11.278
		c-0.335-0.501-0.67-1.003-1.005-1.504c-0.045-0.207-0.034-0.41,0.031-0.61c0.401-1.539,0.286-2.99-0.732-4.286
		c-0.039-0.213-0.069-0.427-0.093-0.643c0.206-6.016-2.338-11.585-2.836-17.486c-3.073-16.373-7.975-32.086-15.402-47.098
		c-8.654-17.493-20.479-32.026-36.574-43.133c-5.217-3.6-11.208-5.457-16.807-8.286c6.328,3.867,12.744,7.571,17.819,13.083
		c-0.116,0.593,0.314,0.626,0.712,0.694l-0.013-0.013c0.179,0.788,0.667,1.254,1.458,1.411c0.217,0.208,0.434,0.414,0.651,0.621
		c0.151,0.85,0.655,1.331,1.509,1.449l-0.146,0.002c0.326,0.231,0.652,0.463,0.979,0.694c0.158,0.171,0.317,0.342,0.475,0.513
		c0.236,0.318,0.471,0.636,0.706,0.954l0.003-0.146c0.098,0.854,0.605,1.323,1.414,1.508l-0.035-0.039
		c0.065,0.399,0.057,0.868,0.689,0.729c12.085,12.522,19.988,27.536,26.047,43.656c5.861,15.594,9.962,31.635,12.328,48.123
		c-1.12,4.175,0.083,8.044,1.567,11.877l-0.024-0.085c0.04,1.692-0.456,3.462,0.725,4.988l-0.025-0.092
		c-0.516,4.878,0.936,9.659,0.712,14.525c-0.044,0.97,0.237,1.84,1.209,2.312c0.173,3.29,1.089,6.517,0.817,9.842
		c-1.562,3.302,0.116,6.601,0.109,9.903c-0.021,11.844,0.127,23.701,0.721,35.529c0.85,16.904,1.432,33.84,3.496,50.656
		c0.334,2.73-0.45,5.846,1.86,8.17c-0.016,2.385,1.48,4.613,0.722,7.074c-0.158,0.203-0.16,0.408-0.006,0.615
		c0.09,0.213,0.139,0.436,0.145,0.668c-0.391,5.5,0.836,10.806,1.949,16.124c-0.854,4.634-3.715,7.508-7.773,7.811
		c-4.557,0.341-7.84-2.364-9.483-7.813c0.851-1.271,0.614-2.66,0.408-4.035c-1.06-7.078-2.31-14.129-2.714-21.297
		c-0.094-1.635-0.021-3.541-1.729-4.674c-0.059-0.264-0.116-0.527-0.174-0.791c0.918-1.842,1.094-3.881,0.732-5.783
		c-1.178-6.21-0.498-12.545-1.437-18.745c-0.526-3.47-1.131-6.929-0.663-10.409c0.854-6.365,0.038-12.745,0.033-19.091
		c-0.008-10.771-0.789-21.571-1.38-32.353c-0.528-9.643-1.202-19.248-2.366-28.824c-0.188-1.547-0.123-3.316-1.674-4.399
		c-0.686-1.839-0.814-3.77-0.93-5.703c0.649-0.905,0.687-1.95,0.54-2.972c-0.567-3.96-1.169-7.916-1.803-11.865
		c-0.159-0.995-0.252-2.094-1.412-2.571c-3.095-13.376-7.046-26.49-12.041-39.285c0.951-2.481-0.7-4.407-1.442-6.51
		c-0.237-0.669-0.973-0.966-1.752-0.749c-0.545,0.152-0.749,0.617-0.622,1.08c1.146,4.153,0.479,8.801,3.394,12.47
		c3.083,13.012,5.844,26.087,7.902,39.305c-0.753,1.309-1.025,2.531,0.607,3.416c0.018,0.267,0.036,0.534,0.055,0.802
		c-0.746,1.606-1.328,3.3-0.822,5.046c1.695,5.854,1.768,11.912,2.133,17.897c0.559,9.158,0.649,18.345,0.93,27.521
		c0.029,0.938,0.041,1.867,0.664,2.65c-0.005,0.48-0.011,0.959-0.016,1.439c-0.758,1.631-1.289,3.256,0.084,4.85
		c1.227,1.79,0.652,3.744,0.516,5.659c-1.34,0.696-1.335,1.377,0.023,2.043c0.008,0.722,0.018,1.444,0.027,2.167
		c-1.697,1.271-1.262,3.135-1.266,4.824c-0.023,11.482,0.001,22.965,0.01,34.447c0.016,0.222-0.029,0.43-0.137,0.625
		c-0.18,0.544-0.523,1.09-0.518,1.633c0.111,10.701-2.53,21.278-1.451,32.021c0.002,0.223-0.041,0.437-0.129,0.642
		c-1.553,6.815-1.194,13.815-1.975,20.71c-0.926,8.178-1.039,16.423-1.921,24.617c-0.374,3.482-1.964,7.037-0.29,10.608
		c-0.047,0.258-0.093,0.516-0.139,0.773c-2.008,1.424-2.865,3.631-3.898,5.719l0.04-0.109c-3.11,1.003-6.224,0.481-9.336,0.021
		c0,0,0.102,0.068,0.102,0.066c-0.384-1.088-1.147-1.797-2.205-2.211c0,0,0.071,0.088,0.069,0.088
		c-0.24-0.504-0.48-1.008-0.721-1.512l0.014,0.055c0.009-2.648-0.348-5.236-1.267-7.732c0.021-0.484,0.043-0.969,0.063-1.452
		c1.331-0.614,1.17-1.849,1.276-2.995c0.384-4.149,0.847-8.293,1.188-12.445c0.578-7.039,1.092-14.082,1.621-21.124
		c0.189-2.532-0.83-4.026-3.548-3.997l0.021,0.01c-0.299-1.166-1.165-1.408-2.209-1.359c0,0,0.14,0,0.139,0.001
		c-0.487-0.249-0.975-0.5-1.463-0.752l0.035,0.017c-0.269-0.581-0.556-1.133-1.362-0.797c-1.951,0.047-2.288,1.836-3.005,3.018
		c-5.748,9.453-13.527,17.133-21.432,24.693c-4.264,4.08-9.678,6.374-14.82,9.068c-1.664,0.801-3.33,1.604-4.996,2.404l0.085-0.074
		c-9.224,3.668-18.792,5.781-28.702,6.35c-0.893-0.203-1.784-0.575-2.678-0.58c-4.647-0.022-9.272-0.271-13.91-0.6
		c-2.812-0.2-5.664-1.795-8.533-0.221c-7.151-0.792-13.769-3.318-20.053-6.623c-12.891-6.775-24.35-15.371-33.217-27.114
		c-1.557-2.062-2.895-4.209-3.361-6.798c0.777-1.611,1.142-3.132-0.895-4.135l-0.31,0.01l-0.308-0.035
		c-0.839-0.369-1.112,0.222-1.383,0.814l0.088-0.061c-1.043-0.042-1.879,0.246-2.193,1.369c0,0,0.024-0.035,0.024-0.033
		c-0.249,0.248-0.497,0.497-0.745,0.745l0.031-0.027c-0.797,0.979-0.646,2.157-0.744,3.304c-0.433,4.997,0.538,9.901,1.17,14.797
		c0.395,3.061-0.598,6.27,0.963,9.189c0.18,0.451,0.359,0.902,0.538,1.354c0.048,1.231,0.097,2.463,0.146,3.688
		c0.465,6.306-0.71,12.565-0.602,18.866l-0.021-0.102c-0.24,0.505-0.481,1.01-0.723,1.514c0,0,0.012-0.126,0.012-0.125
		c-0.256,0.257-0.512,0.514-0.77,0.77c0,0,0.127-0.01,0.126-0.01c-0.499,0.249-0.999,0.498-1.499,0.747c0,0,0.078-0.009,0.08-0.007
		c-3.439,1.338-6.672-0.065-9.959-0.757l0.037,0.034c-0.211-1.533-0.981-2.695-2.307-3.493c-0.835-1.3-1.002-2.81-1.334-4.268
		c-0.153-3.044-0.307-6.088-0.459-9.132c1.126-1.842,0.66-3.873,0.543-5.801c-0.615-10.193-1.096-20.404-2.147-30.557
		c-0.409-3.947,0.489-8.2-1.86-11.87c-0.739-6.775-1.453-13.552-1.429-20.382c1.403-5.847,0.344-11.779,0.596-17.668
		c0.149-3.479-0.253-6.928-1.315-10.272c-0.002-0.479-0.005-0.96-0.008-1.439c0.047-0.071,0.142-0.149,0.133-0.214
		c-0.02-0.154-0.088-0.303-0.137-0.453c0.002-0.479,0.004-0.959,0.007-1.438c0.7-0.893,0.679-1.951,0.674-2.999
		c-0.114-20.933,0.041-41.862,0.661-62.786l0.018,0.017c-0.189,0.009-0.379,0.014-0.569,0.014c0.255-2.574,0.509-5.148,0.763-7.722
		c1.311,0.136,1.191-0.838,1.201-1.623c0.17-13.097,2.585-25.911,4.693-38.776c0.414-2.53,1.734-5.187,0.348-7.859
		c-0.02-0.484-0.039-0.967-0.059-1.451c0.445,0.1,0.987,0.312,1.068-0.391c0.062-0.535-0.363-0.825-0.847-0.946
		c-0.575-0.144-1.33-0.25-1.476,0.434c-0.213,1-0.139,2.06-0.186,3.094l0.061-0.084c-1.616,1.333-1.525,3.162-1.452,4.987
		l0.104-0.065c-1.828,0.952-1.559,2.64-1.496,4.256l0.104-0.083c-1.453,1.052-1.732,2.711-2.057,4.273
		c-1.428,6.9-2.803,13.812-4.144,20.73c-0.328,1.691-0.647,3.435,0.353,5.057c-0.061,0.71-0.123,1.42-0.184,2.131
		c-0.519-0.496-1.044-0.708-1.1,0.28c-0.436,7.659-2.502,15.169-2.088,22.906l0.099-0.105c-1.68,5.191-0.999,10.615-1.554,15.919
		c-0.107,1.024-0.038,2.076,0.604,2.979c-0.024,0.256-0.049,0.512-0.073,0.767c-2.451,3.323-1.854,6.859-0.725,10.432
		c-0.127,0.887-0.255,1.774-0.381,2.661c-0.031,1.018-0.062,2.035-0.094,3.052c-0.222,2.644,0.443,5.345-0.509,7.941
		c-0.327-0.549,0.146-1.398-0.943-1.927c0.328,3.902-0.684,7.678,0.645,11.378c0.169,1.126,0.128,2.233-0.28,3.31
		c-0.277-0.205-0.814-1.074-0.844-0.356c-0.158,3.913-0.811,7.87,0.411,11.739c-0.116,1.066-0.231,2.134-0.347,3.201
		c-0.076-0.219-0.137-0.441-0.229-0.653c-0.255-0.589-0.691-0.71-0.665,0.033c0.263,7.421-2.091,14.579-2.155,21.962
		c-0.771,0.966-0.733,2.084-0.61,3.219l0.015-0.092c-1.357,3.999-1.646,8.127-1.484,12.31c0,0,0.027-0.057,0.027-0.056
		c-0.248,0.641-0.633,1.262-0.723,1.924c-1.146,8.406-2.133,16.844-5.621,24.717l0.019-0.013c-0.483,0.261-0.966,0.522-1.448,0.783
		l0.123-0.03c-3.158,0.617-6.202-0.213-9.271-0.734l0.039,0.033c-0.06-1.019-0.613-1.686-1.497-2.119c0,0,0.047,0.039,0.043,0.041
		c-1.129-4.482-0.449-8.884,0.337-13.352c0.481-2.738,1.966-5.514,0.522-8.405c0.525-3.29,1.049-6.582,1.573-9.873
		c2.267-4.149,2.425-8.702,2.54-13.264c0.19-0.421,0.521-0.832,0.55-1.263c0.772-11.587,2.648-23.08,2.942-34.707
		c0.135-5.342,0.17-10.679,0.512-16.027c0.275-4.309,2.062-8.695,0.275-13.07c0.004-0.718,0.008-1.436,0.012-2.153
		c0.943-1.276,1.225-2.767,1.263-4.294c0.361-14.688,2.497-29.207,4.038-43.786c0.295-2.794,1.584-5.664,0.326-8.554
		c1.609-11.971,4.477-23.641,8.398-35.058c3.082-3.936,3.484-8.812,4.695-13.403l0.023,0.118c2.283-2.867,2.25-6.716,4.158-9.771
		c0.751-1.203,1.635-2.577,0.908-4.191c6.854-14.146,14.539-27.715,26.585-38.252c6.237-4.84,12.155-10.09,18.663-14.611
		c-7.529,3.395-14.504,7.691-20.972,12.827c0,0,0.095-0.053,0.094-0.052c-0.704,0.242-1.431,0.459-1.559,1.361
		c0,0,0.083-0.013,0.079-0.016c-0.707-0.11-1.086,0.321-1.412,0.842c0,0,0.14,0.014,0.14,0.013
		c-0.342,0.238-0.684,0.478-1.025,0.717c-11.55,10.15-19.794,22.745-27.073,36.126c-6.188,11.377-9.259,23.799-12.846,36.067
		C351.859,225.145,351.422,229.926,351.041,234.723z M551.266,390.879c0.201,0.094,0.402,0.188,0.604,0.279
		c3.3,2.071,6.6,4.143,9.899,6.212c-0.325,1.647,1.012,1.762,1.913,1.668c1.533-0.161,1.468-1.585,1.48-2.723
		c0.062-5.905,0.784-11.757,1.293-17.628c0.185-2.123,0.699-4.395-0.537-6.451c0.027-0.479,0.055-0.959,0.082-1.438
		c1.555-0.596,1.426-1.928,1.414-3.217c-0.051-4.995-0.094-9.991-0.141-14.986c0.375-1.617-1.496-3.205-0.059-4.835
		c0.71-0.856,0.792-1.886,0.792-2.933c-0.003-6.194,0.013-12.389-0.042-18.582c-0.006-0.768-0.393-1.529-0.603-2.294
		c0.003-0.483,0.007-0.966,0.012-1.448c0.815-0.262,0.796-0.917,0.948-1.633c0.553-2.582-0.288-5.074-0.316-7.61
		c-0.061-5.444,0.109-10.88,0.486-16.315c0.143-2.041,1.031-4.521-1.559-5.947c-2.083,0.684-4.199,1.279-6.238,2.072
		c-2.382,0.926-5.883-0.919-7.185,1.8c-1.08,2.257-0.673,5.23-0.9,7.89c-0.06,0.693-0.026,1.396-0.043,2.094
		c-0.288,12.238-3.464,23.592-10.37,33.801c-2.41,0.865-2.651,3.03-2.988,5.088c-1.436,8.759,0.076,17.393,1.275,26.018
		c0.459,3.294,0.968,6.688,3.109,9.481l-0.057-0.131c0.301,2.208,0.243,4.592,2.801,5.688l-0.029-0.043
		c0.012,1.023,0.264,1.887,1.426,2.145l-0.027-0.038c-0.006,1.085,0.336,1.911,1.551,2.092l-0.182,0.015
		c0.253,0.253,0.505,0.504,0.758,0.757l-0.056-0.058c0.253,0.251,0.506,0.502,0.759,0.752l-0.055-0.057
		c0.256,0.248,0.512,0.496,0.766,0.744L551.266,390.879z M406.289,387.572l-0.059,0.062c0.242-0.494,0.486-0.988,0.729-1.483
		l-0.043,0.046c1.199-0.254,1.421-1.143,1.415-2.18l-0.076,0.096c4.653-6.303,4.952-13.536,4.477-20.936
		c0.633-5.425,0.446-10.884,0.726-16.318c0.146-2.859-0.637-5.159-2.066-7.504c-3.633-5.955-6.588-12.234-8.492-18.973
		c0.582-0.652,0.306-1.043-0.398-1.303c-0.124-0.492-0.247-0.984-0.371-1.475c0.535-6.34-0.848-12.578-1.082-18.887
		c-0.19-5.126-4.986-6.752-9.491-3.689c-0.271,4.795,1.721,9.568,0.138,14.375c-0.107-0.539-0.215-1.079-0.323-1.619
		c-0.521,3.249-0.648,6.5-0.485,9.736c0.178,3.525-0.746,7.126,0.635,10.578c-0.007,0.25-0.015,0.501-0.021,0.751
		c-0.646,0.695-0.648,1.38,0.034,2.052c-0.011,0.482-0.021,0.964-0.031,1.445c-0.007,0.215-0.013,0.429-0.021,0.644
		c0.006,5.387,0.01,10.774,0.016,16.161c-1.25,3.226-0.543,6.553-0.441,9.838c0.011,0.35,0.503-0.07,0.701-0.307
		c0.87,2.154,0.455,4.386,0.4,6.596c-0.195,0.779-0.506,1.549-0.568,2.34c-0.473,6.051,0.982,12.027,0.744,18.074
		c-0.031,0.762,0.246,1.389,1.226,1.221c0.547,2.938-0.44,6.045,0.995,9.164c2.355-1.443,4.605-2.82,6.855-4.197
		c2.436,0.535,2.92-1.227,3.455-2.93c0.195-0.22,0.391-0.438,0.585-0.658C405.729,388.053,406.009,387.812,406.289,387.572z
		 M456.024,389.016c-0.108-0.637-0.56-0.756-1.104-0.73c-0.41-0.381-0.759-0.881-1.238-1.121c-7.75-3.878-14.121-9.424-19.646-16.03
		c-4.617-5.521-9.149-11.108-13.438-17.208c-1.112,1.357-0.893,2.67-0.934,3.887c-0.115,3.38-0.116,6.764-0.264,10.142
		c-0.424,9.745-2.689,18.927-8.74,26.816c-1.027,1.34-0.674,2.317-0.066,3.479c12.584,24.003,33.172,35.322,59.499,37.544
		c3.888-0.002,7.774-0.003,11.661-0.004c3.581-0.439,7.195-0.695,10.738-1.348c22.074-4.066,38.428-15.939,48.774-35.957
		c1.046-2.023,1.416-3.852-0.193-5.806c-4.942-6.002-6.676-13.181-7.587-20.699c-0.707-5.83-0.254-11.771-1.643-18.095
		c-2.924,3.919-5.42,7.523-8.178,10.914c-7.598,9.35-15.299,18.609-27.038,23.145c-1.835,0.709-3.612,1.564-5.417,2.354
		c-3.328,0.549-6.656,1.098-9.984,1.646l-0.062-0.254c-4.656-0.887-9.309-1.039-13.953,0.079c-1.93,0.176-3.678-1.132-5.639-0.696
		l0.05,0.018c-0.922-1.133-2.235-1.279-3.554-1.418l0.062,0.025c-0.564-0.699-1.249-1.046-2.157-0.729L456.024,389.016z
		 M396.497,234.982l0.019,0.006c-1.982-1.208-4.051-1.395-6.209-0.529c-3.594,1.379-3.969,4.659-4.256,7.743
		c-1.053,11.269,0.717,22.228,4.341,32.873c1.06,3.114,2.272,6.383,5.468,8.192c3.484,1.787,3.49,1.787,3.416-2.041
		c-0.022-1.155-0.079-2.31-0.12-3.465l0.259-0.049c0.512-0.68,0.548-1.355-0.021-2.024c-0.092-0.519-0.182-1.037-0.273-1.556
		l0.2,0.079c0.216-0.768,0.619-1.536,0.622-2.305c0.043-10.436,0.029-20.872,0.035-31.308c0-1.088-0.219-2.073-1.121-2.791
		c-0.548-0.717-1.096-1.433-1.645-2.15l0.021,0.076C396.987,235.483,396.742,235.232,396.497,234.982z M554.547,275.562
		c0.372,2.591-0.51,5.09-0.554,7.646c-0.021,1.158-0.106,2.699,1.786,1.912c4.176-1.738,7.705-4.142,9.386-8.725
		c2.429-6.624,3.398-13.532,4.459-20.436c2.052-4.155,1.622-8.337,0.14-12.532c-0.248-1.133-0.537-2.259-0.738-3.401
		c-0.619-3.532-2.752-5.547-6.221-6.137c-3.516-0.599-6.16,0.648-7.731,3.936c-0.843,0.524-1.161,1.169-0.474,2.047
		c-0.009,0.737-0.019,1.474-0.027,2.21c-0.739,1.15-0.591,2.447-0.593,3.71c-0.011,7.984-0.015,15.967-0.007,23.95
		c0,1.262-0.161,2.561,0.592,3.707c0,0.509,0,1.018,0,1.525C554.373,275.167,554.367,275.362,554.547,275.562z M462.388,332.188
		c6.891,1.277,13.827,1.166,20.776,0.703c5.04-0.299,9.963-1.211,14.546-3.369c2.735-1.289,4.968-3.344,5.1-6.588
		c0.128-3.09-2.171-4.737-4.604-6.041c-1.432-0.766-2.932-1.438-4.457-1.996c-4.514-1.646-9.321-2.035-13.957-3.167
		c-1.951-1.719-4.079-1.312-6.239-0.521c-0.503,0.018-1.007,0.035-1.51,0.055c-1.287-0.889-2.455-0.857-3.457,0.449
		c-3.483,0.852-6.993,1.608-10.442,2.582c-3.368,0.95-6.6,2.305-8.968,5.031c-3.071,3.537-2.755,6.316,1.106,8.971
		C453.9,330.785,458.104,331.658,462.388,332.188z M547.224,234.388c-1.661-13.649-3.303-27.319-7.167-40.558
		c-4.536-15.54-12.193-28.702-28.033-35.434c-6.789-2.885-13.697-5.435-20.948-6.589c-8.579-1.366-14.521-5.282-16.47-14.134
		c-0.032-0.144-0.361-0.224-0.556-0.335c-0.187,0.125-0.448,0.207-0.528,0.374c-0.299,0.626-0.594,1.266-0.791,1.93
		c-1.819,6.144-5.717,9.806-12.127,11.163c-5.801,1.227-11.532,2.882-17.184,4.696c-13.752,4.416-24.223,12.683-30.123,26.218
		c-4.146,9.514-5.891,19.588-7.338,29.755c-2.404,16.9-3.929,33.817-1.074,50.823c2.945,17.551,11,32.781,21.372,46.961
		c1.153,1.579,2.015,1.579,3.135-0.021c1.808-2.58,3.874-4.933,6.261-7.031c7.078-6.215,15.127-10.861,23.611-14.811
		c2.938-1.367,6.035-1.669,9.222-0.926c4.017,0.938,8.016,1.228,12.087,0.094c3.732-1.039,7.336-0.465,10.867,1.203
		c11.075,5.237,21.223,11.718,29.04,21.35c1.454,1.793,2.424,1.643,3.759-0.088c5.854-7.588,11.138-15.5,15.133-24.264
		c2.847-6.245,4.566-12.859,6.869-19.279c0.278-0.763,0.652-1.506,0.821-2.292c1.941-8.971,1.261-18.067,1.251-27.131
		C548.312,235.301,547.868,234.764,547.224,234.388z"/>
</g>
</svg>
